
  <svg xmlns="http://www.w3.org/2000/svg" xmlns:xlink="http://www.w3.org/1999/xlink" version="1.1" id="Layer_1" x="0px" y="0px" viewBox="0 0 150 150" enable-background="new 0 0 150 150" xml:space="preserve">
    <g id="XMLID_7009_">
	    <g id="XMLID_7015_">
		    <path id="XMLID_7016_" fill="#231f20" d="M103.063,140.681H47.604c-20.378,0-36.952-16.573-36.952-36.952V48.271    c0-20.378,16.574-36.952,36.952-36.952h55.458c20.379,0,36.952,16.574,36.952,36.952v55.458    C140.015,124.107,123.441,140.681,103.063,140.681z M47.604,21.561c-14.732,0-26.725,11.993-26.725,26.725v55.458    c0,14.731,11.993,26.725,26.725,26.725h55.458c14.732,0,26.725-11.993,26.725-26.725V48.271c0-14.732-11.992-26.725-26.725-26.725    H47.604V21.561z"/>
	    </g>
	    <g id="XMLID_7011_">
		    <path id="XMLID_7012_" fill="#231f20" d="M75.333,109.877c-18.674,0-33.878-15.188-33.878-33.877    c0-18.674,15.189-33.877,33.878-33.877S109.211,57.311,109.211,76C109.196,94.674,94.007,109.877,75.333,109.877z M75.333,52.364    c-13.027,0-23.635,10.608-23.635,23.635c0,13.028,10.608,23.635,23.635,23.635c13.028,0,23.635-10.607,23.635-23.635    C98.969,62.972,88.361,52.364,75.333,52.364z"/>
	    </g>
	    <circle id="XMLID_7010_" fill="#231f20" cx="112.301" cy="38.91" r="6.164"/>
    </g>
  </svg>











