<?xml version="1.0" encoding="utf-8"?>
<!-- Generator: Adobe Illustrator 21.0.0, SVG Export Plug-In . SVG Version: 6.00 Build 0)  -->
<svg version="1.1" id="Layer_1" xmlns="http://www.w3.org/2000/svg" xmlns:xlink="http://www.w3.org/1999/xlink" x="0px" y="0px"
	 viewBox="0 0 32 32" style="enable-background:new 0 0 32 32;" xml:space="preserve">
<style type="text/css">
	.st0{fill:none;}
	.st1{fill:#231F20;}
</style>
<title>Facebook-neutral</title>
<rect class="st0" width="32" height="32"/>
<path class="st1" d="M24.5,6H7.5C6.6,6,6,6.6,6,7.5v17.1C6,25.3,6.7,26,7.5,26h17.1c0.8,0,1.5-0.6,1.5-1.5V7.5C26,6.6,25.3,6,24.5,6
	z M12.2,22.9H9.1v-9.2h3.1V22.9z M10.6,12.5c-1,0-1.8-0.8-1.8-1.8s0.8-1.8,1.8-1.8s1.8,0.8,1.8,1.8S11.6,12.5,10.6,12.5z M22.9,22.9
	h-3.1v-4.6c0-1.2-0.3-2.5-1.5-2.5c-1.2,0-1.5,1.2-1.5,2.5v4.6h-3.1v-9.2h3.1v1.1h0.2c0.4-0.8,1.4-1.4,2.5-1.4c2.8,0,3.5,1.8,3.5,4.2
	V22.9z"/>
</svg>
